<svg xmlns="http://www.w3.org/2000/svg" viewBox="0 0 175.64 141"><defs><style>.cls-1{font-size:110.06px;font-family:Corbel;}.cls-1,.cls-3{fill:#fff;}.cls-2{font-family:MyriadPro-Regular, Myriad Pro;letter-spacing:0em;}</style></defs><title>blanco</title><g id="Capa_2" data-name="Capa 2"><g id="Capa_1-2" data-name="Capa 1"><text class="cls-1" transform="translate(16.68 104.86) scale(0.89 1)">JQ<tspan class="cls-2" x="122.58" y="0"> </tspan></text><path class="cls-3" d="M173.69,16.1h0c-.06-.49-.15-1-.25-1.47a13.82,13.82,0,0,0-.35-1.41,15.63,15.63,0,0,0-3.25-6c-.28-.32-.59-.62-.89-.91l-.48-.42a11.72,11.72,0,0,0-1-.74,10.2,10.2,0,0,0-2.17-1.13,9.76,9.76,0,0,0-1.16-.37,9.92,9.92,0,0,0-2.43-.3H12.12A10.9,10.9,0,0,0,4,7.27c-.15.16-.29.33-.42.5A12.86,12.86,0,0,0,2.42,9.4c-.12.19-.23.38-.34.58-.22.4-.42.82-.61,1.24a16.39,16.39,0,0,0-.73,2c-.07.25-.15.53-.23.85s-.19.87-.26,1.29c0,.24-.08.49-.11.74A19.55,19.55,0,0,0,0,18.39V126c0,8.27,5.44,15,12.12,15H161.71a9.92,9.92,0,0,0,2.43-.3,9.76,9.76,0,0,0,1.16-.37,11.21,11.21,0,0,0,2.17-1.13,11.85,11.85,0,0,0,1-.75l.47-.41a16.5,16.5,0,0,0,4.89-12V18.39A19.55,19.55,0,0,0,173.69,16.1Zm1.95,102.38a11.74,11.74,0,0,1-3.54,8.68l-.35.31c-.24.2-.48.38-.73.55a8.12,8.12,0,0,1-1.6.83c-.27.1-.56.19-.85.27a7.69,7.69,0,0,1-1.79.22H17.18c-4.89,0-8.86-4.87-8.86-10.86V10.86a12.78,12.78,0,0,1,.1-1.64c0-.18.05-.36.08-.54s.11-.59.19-.92.1-.41.16-.61a11.2,11.2,0,0,1,.53-1.44,9.37,9.37,0,0,1,.44-.9c.08-.14.16-.28.25-.42A10.09,10.09,0,0,1,10.9,3.2l.31-.36a8,8,0,0,1,6-2.84h149.6a7.69,7.69,0,0,1,1.79.22c.29.08.58.17.86.27a8.33,8.33,0,0,1,1.59.83c.25.17.49.35.73.55l.35.3c.22.21.44.44.65.67a11.3,11.3,0,0,1,2.36,4.31c.09.33.18.67.25,1s.13.7.18,1.06a14.89,14.89,0,0,1,.1,1.64Z"/></g></g></svg>